<?xml version="1.0" standalone="no"?>
<!DOCTYPE svg PUBLIC "-//W3C//DTD SVG 20010904//EN"
 "http://www.w3.org/TR/2001/REC-SVG-20010904/DTD/svg10.dtd">
<svg version="1.0" xmlns="http://www.w3.org/2000/svg"
 width="800.000000pt" height="800.000000pt" viewBox="0 0 800.000000 800.000000"
 preserveAspectRatio="xMidYMid meet">
<metadata>
Created by potrace 1.14, written by Peter Selinger 2001-2017
</metadata>
<g transform="translate(0.000000,800.000000) scale(0.100000,-0.100000)"
fill="#000000" stroke="none">
<path d="M3897 7994 c-2 -2 -279 -13 -330 -14 -20 0 -26 -4 -21 -12 5 -8 0 -7
-11 2 -10 8 -16 10 -13 4 4 -6 -6 -10 -26 -11 -18 -1 -55 -4 -82 -8 -27 -4
-62 -7 -79 -6 -22 1 -26 -1 -15 -8 10 -7 3 -10 -25 -10 -22 0 -49 -2 -60 -5
-11 -2 -28 -5 -38 -5 -12 -1 -16 -5 -11 -13 5 -9 2 -9 -9 1 -13 10 -17 10 -17
1 0 -9 -4 -9 -17 1 -11 10 -14 10 -9 2 7 -12 -6 -17 -41 -16 -7 1 -11 -3 -8
-7 4 -7 -16 -10 -67 -11 -10 0 -20 -4 -23 -9 -3 -5 -12 -7 -20 -3 -9 3 -21 1
-28 -5 -6 -5 -31 -13 -54 -17 -24 -4 -43 -11 -43 -16 0 -5 -3 -8 -7 -7 -17 4
-98 -15 -104 -24 -3 -5 -25 -12 -47 -15 -23 -3 -39 -9 -36 -14 4 -8 -10 -11
-32 -8 -4 0 -10 -4 -13 -10 -6 -9 -32 -17 -64 -20 -5 -1 -5 -7 -1 -13 5 -8 0
-7 -11 2 -10 8 -16 10 -11 3 5 -9 -5 -15 -34 -19 -25 -4 -37 -10 -30 -14 7 -5
-10 -11 -40 -15 -36 -5 -48 -10 -39 -16 10 -6 8 -9 -8 -9 -13 0 -23 -4 -23
-10 0 -5 -18 -13 -40 -16 -22 -4 -37 -10 -35 -14 3 -5 -8 -11 -25 -15 -16 -4
-30 -11 -30 -16 0 -6 -4 -8 -9 -4 -5 3 -12 1 -16 -5 -4 -6 -10 -8 -15 -5 -5 3
-13 -2 -18 -11 -5 -9 -12 -15 -16 -15 -15 3 -75 -32 -70 -40 3 -5 2 -9 -3 -8
-16 4 -63 -13 -58 -22 3 -4 -10 -11 -29 -14 -19 -4 -37 -14 -40 -22 -3 -8 -10
-12 -15 -8 -6 3 -13 -1 -18 -9 -4 -8 -12 -16 -18 -18 -5 -2 -9 -6 -8 -9 1 -4
-10 -10 -25 -14 -15 -4 -29 -10 -32 -14 -8 -11 -64 -45 -75 -46 -5 -1 -9 -6
-7 -13 1 -7 -5 -13 -13 -13 -35 -3 -40 -5 -37 -17 1 -7 -4 -12 -12 -12 -8 0
-16 -7 -20 -15 -3 -8 -12 -15 -19 -15 -8 0 -22 -10 -33 -21 -19 -21 -62 -44
-77 -41 -4 1 -6 -1 -6 -5 3 -20 -2 -33 -14 -33 -7 0 -20 -8 -29 -17 -23 -25
-51 -48 -59 -48 -3 0 -21 -16 -40 -36 -19 -19 -42 -38 -52 -42 -11 -4 -15 -12
-11 -18 4 -7 3 -9 -4 -6 -5 4 -23 -7 -39 -24 -15 -18 -35 -38 -44 -47 -17 -16
-101 -99 -115 -113 -5 -5 -22 -21 -37 -34 -15 -14 -26 -25 -23 -25 6 0 -6 -13
-79 -93 -25 -27 -45 -53 -45 -59 0 -5 -4 -6 -10 -3 -5 3 -12 -6 -16 -20 -3
-13 -10 -22 -15 -19 -8 5 -13 -9 -10 -28 0 -5 -6 -8 -14 -8 -8 0 -15 -5 -15
-11 0 -5 -5 -7 -10 -4 -6 4 -9 3 -8 -2 5 -14 -76 -132 -90 -133 -7 0 -11 -4
-7 -9 3 -6 -1 -13 -9 -18 -8 -4 -16 -15 -18 -23 -2 -8 -10 -20 -18 -27 -8 -7
-12 -13 -8 -13 5 0 -1 -9 -12 -20 -11 -11 -20 -27 -20 -35 0 -8 -4 -15 -9 -15
-5 0 -14 -13 -21 -30 -7 -16 -19 -30 -26 -30 -8 0 -13 -3 -12 -7 2 -13 -20
-61 -32 -68 -5 -3 -8 -10 -5 -15 3 -5 1 -11 -5 -15 -6 -4 -7 -11 -4 -17 4 -7
2 -8 -4 -4 -7 4 -14 -3 -18 -19 -3 -14 -12 -25 -19 -25 -8 0 -11 -8 -8 -22 4
-18 2 -20 -5 -9 -8 11 -12 6 -17 -22 -4 -20 -11 -34 -16 -31 -8 5 -14 -17 -10
-39 1 -4 -6 -10 -14 -13 -8 -4 -15 -17 -15 -29 0 -13 -7 -30 -15 -38 -7 -8
-17 -26 -21 -41 -3 -14 -10 -23 -15 -20 -5 3 -9 1 -9 -5 0 -5 6 -12 13 -14 7
-3 4 -6 -7 -6 -12 -1 -16 -6 -12 -17 3 -8 2 -13 -3 -10 -5 3 -12 -10 -15 -29
-4 -19 -11 -35 -17 -35 -6 0 -8 -4 -4 -9 3 -5 1 -12 -5 -16 -6 -4 -8 -10 -5
-15 3 -5 1 -11 -4 -15 -6 -3 -8 -12 -4 -21 3 -9 0 -14 -8 -12 -13 3 -15 -2
-17 -55 -1 -16 -6 -25 -12 -22 -5 3 -10 -3 -10 -14 0 -10 -4 -21 -10 -23 -10
-3 -18 -35 -19 -76 -1 -13 -5 -21 -10 -17 -6 3 -13 -15 -16 -40 -4 -25 -10
-43 -14 -41 -4 3 -8 -10 -9 -27 -2 -17 -7 -36 -12 -41 -4 -4 -6 -15 -3 -22 3
-8 0 -14 -7 -14 -7 0 -10 -8 -7 -20 3 -11 2 -22 -2 -24 -4 -3 -8 -24 -10 -48
-1 -24 -6 -44 -12 -46 -5 -2 -9 -15 -9 -28 0 -14 -4 -22 -10 -19 -5 3 -10 1
-10 -4 0 -6 5 -11 10 -11 6 0 10 -5 10 -11 0 -5 -4 -7 -10 -4 -5 3 -10 -2 -11
-12 0 -10 -2 -27 -4 -38 -2 -11 -6 -32 -8 -46 -2 -14 -8 -32 -12 -39 -5 -8 -4
-11 2 -7 5 3 10 0 10 -8 0 -8 -4 -12 -9 -9 -4 3 -9 -7 -9 -23 -1 -15 -2 -32
-4 -38 -1 -5 -3 -29 -3 -53 -1 -26 -6 -41 -12 -37 -5 3 -10 2 -10 -4 0 -5 6
-11 13 -14 9 -3 9 -7 0 -18 -7 -9 -15 -66 -18 -139 -4 -69 -9 -132 -12 -140
-9 -23 -11 -60 -2 -55 4 3 6 -3 4 -12 -2 -10 -4 -18 -5 -18 -1 0 -4 -15 -7
-34 -3 -25 -1 -31 9 -25 10 6 10 5 2 -7 -14 -16 -13 -117 0 -138 6 -10 6 -12
-3 -7 -14 9 -11 -30 3 -53 6 -9 5 -12 -2 -7 -7 4 -10 -4 -10 -23 1 -17 4 -28
9 -26 4 3 6 -3 4 -12 -2 -10 -4 -18 -5 -18 -1 0 -3 -8 -5 -18 -2 -9 1 -15 6
-11 13 8 11 -10 -3 -25 -8 -9 -9 -11 -2 -7 8 4 12 -5 12 -27 0 -17 3 -70 7
-117 4 -47 8 -102 8 -122 0 -21 4 -35 9 -32 4 3 9 -15 9 -40 1 -25 3 -50 4
-56 1 -5 3 -26 4 -46 0 -19 4 -33 9 -30 4 2 8 -10 9 -27 3 -50 13 -110 24
-137 5 -14 10 -37 11 -52 1 -15 5 -25 9 -22 3 2 9 -15 12 -39 8 -58 14 -82 26
-106 6 -11 11 -34 11 -51 0 -17 4 -29 9 -26 7 5 18 -40 23 -91 1 -7 5 -10 9
-8 4 3 10 -13 14 -35 4 -22 11 -40 16 -40 5 0 9 -9 9 -19 0 -11 4 -22 9 -25 4
-3 11 -24 15 -46 3 -22 11 -40 16 -40 5 0 13 -18 16 -40 4 -22 10 -38 14 -35
7 4 12 -13 26 -75 1 -8 8 -16 14 -18 5 -2 8 -8 4 -13 -3 -5 -1 -9 5 -9 5 0 12
-13 16 -30 4 -16 10 -30 15 -30 4 0 11 -15 14 -34 4 -19 13 -39 21 -46 8 -7
15 -19 15 -26 0 -8 5 -14 10 -14 6 0 10 -9 10 -19 0 -11 5 -23 10 -26 6 -4 7
-11 4 -17 -4 -6 -3 -9 2 -6 8 5 42 -22 37 -29 -4 -7 11 -43 18 -43 5 0 9 -6 9
-14 0 -8 7 -22 16 -30 8 -9 17 -25 19 -36 2 -11 11 -27 20 -36 8 -9 12 -20 9
-26 -4 -7 -2 -8 4 -4 7 4 12 3 12 -3 0 -5 8 -17 17 -27 10 -9 18 -24 19 -32 2
-8 7 -18 11 -21 5 -3 20 -24 33 -46 14 -22 34 -50 45 -62 37 -40 46 -53 38
-53 -4 0 0 -5 10 -11 9 -6 15 -14 12 -19 -3 -4 2 -11 11 -14 8 -3 13 -10 9
-15 -3 -5 4 -13 16 -16 11 -4 18 -9 15 -12 -2 -3 1 -12 7 -20 19 -22 76 -85
103 -113 14 -14 22 -29 18 -33 -4 -4 0 -7 9 -7 9 0 19 -11 23 -24 4 -16 11
-23 20 -19 8 3 14 1 12 -3 -3 -9 13 -31 40 -57 130 -125 249 -247 244 -251 -3
-3 4 -6 16 -6 11 0 25 -6 29 -13 4 -8 22 -24 40 -37 18 -13 29 -28 26 -33 -3
-6 -2 -8 3 -4 5 3 32 -15 59 -39 28 -24 53 -44 56 -44 3 0 17 -9 30 -21 13
-12 44 -35 69 -52 25 -17 47 -34 48 -39 2 -4 10 -8 17 -8 7 0 15 -3 17 -7 4
-10 154 -109 248 -163 137 -80 340 -179 489 -239 142 -57 390 -141 417 -141 8
0 14 -5 14 -11 0 -5 4 -8 9 -5 4 3 39 -3 77 -13 38 -11 121 -29 184 -41 63
-12 122 -24 130 -27 8 -3 31 -7 50 -9 19 -1 46 -5 60 -7 79 -15 114 -19 285
-34 115 -10 486 -10 590 0 134 13 179 18 210 22 17 3 48 7 70 10 785 115 1472
426 2035 921 160 141 395 384 492 509 4 6 20 26 36 45 197 244 406 592 542
901 151 341 268 797 297 1155 10 129 10 670 0 804 -5 58 -8 117 -8 133 1 15
-2 27 -6 27 -5 0 -9 10 -9 23 -3 51 -8 83 -15 92 -5 6 -8 20 -8 30 0 44 -13
120 -22 123 -5 2 -9 8 -9 13 0 6 4 8 8 5 5 -3 9 1 9 9 0 8 -4 12 -8 10 -9 -6
-22 62 -14 75 3 6 1 10 -5 10 -6 0 -8 4 -5 10 3 6 2 10 -3 10 -5 0 -10 12 -10
28 -2 24 -7 59 -12 72 -1 3 -2 16 -1 30 2 20 0 22 -8 10 -9 -12 -11 -9 -11 13
0 15 -6 27 -12 27 -10 0 -9 3 1 9 8 5 9 10 3 12 -6 2 -13 16 -15 30 -3 14 -13
48 -22 75 -9 27 -17 57 -18 66 -1 9 -4 15 -8 12 -4 -2 -10 14 -14 36 -4 22
-11 40 -16 40 -5 0 -9 6 -9 14 0 8 -9 33 -19 57 -11 24 -17 47 -15 51 3 4 0 8
-5 8 -6 0 -11 5 -11 11 0 5 -9 31 -21 56 -11 25 -21 53 -22 63 -1 10 -4 17 -8
14 -4 -2 -10 9 -14 26 -4 16 -11 30 -16 30 -5 0 -9 7 -9 15 0 8 -4 15 -9 15
-5 0 -12 15 -15 34 -4 19 -10 36 -14 38 -11 5 -52 85 -52 103 0 9 -4 13 -10
10 -6 -3 -10 1 -10 9 0 9 -3 16 -7 16 -5 0 -19 25 -33 55 -14 30 -28 55 -32
55 -5 0 -8 7 -8 15 0 9 -6 18 -14 21 -8 3 -17 17 -21 32 -3 14 -14 33 -23 41
-26 24 -65 83 -65 97 0 7 -4 11 -9 8 -4 -3 -8 0 -8 5 0 6 -9 20 -20 31 -11 11
-18 20 -14 20 3 0 -5 10 -18 23 -13 12 -29 34 -36 50 -6 15 -16 27 -22 27 -5
0 -10 5 -10 10 0 6 -12 24 -27 41 -16 17 -27 36 -25 41 1 5 -2 7 -8 3 -5 -3
-10 -1 -10 4 0 6 -8 11 -17 12 -10 0 -13 3 -6 5 7 3 -8 25 -36 52 -26 26 -50
55 -54 65 -3 9 -13 17 -22 17 -8 0 -14 3 -13 8 4 10 -39 52 -54 52 -6 0 -9 3
-5 6 7 8 -113 130 -125 126 -4 -1 -7 1 -6 5 3 8 -36 51 -49 56 -5 1 -7 5 -6 9
2 4 -6 10 -17 13 -11 4 -18 11 -15 16 4 5 -2 9 -12 9 -20 0 -55 34 -46 44 4 3
-1 6 -10 6 -10 0 -17 5 -17 12 0 6 -3 9 -6 5 -4 -3 -18 7 -32 23 -15 17 -32
30 -40 30 -7 0 -10 5 -7 10 3 6 -3 10 -15 10 -12 0 -19 4 -15 9 3 5 -4 12 -15
16 -11 4 -18 11 -14 16 3 5 2 9 -3 8 -4 -1 -19 2 -31 6 -18 6 -20 10 -10 16 9
6 7 9 -9 9 -13 0 -23 5 -23 11 0 5 -4 8 -9 5 -5 -3 -12 1 -15 10 -4 9 -9 14
-12 11 -3 -3 -19 8 -35 24 -16 16 -39 29 -49 29 -11 0 -19 6 -18 13 2 6 -3 11
-10 9 -7 -1 -15 5 -18 13 -4 8 -12 15 -19 15 -8 0 -21 7 -29 16 -9 8 -16 12
-16 7 0 -4 -5 -1 -10 7 -5 8 -13 15 -17 16 -20 2 -42 17 -37 25 3 5 -4 9 -15
9 -29 0 -51 11 -51 25 0 7 -6 13 -12 12 -33 -1 -49 4 -43 13 3 6 -1 10 -9 10
-9 0 -16 4 -16 9 0 5 -13 12 -30 16 -16 4 -30 10 -30 15 0 5 -14 11 -30 15
-17 4 -28 11 -24 16 3 5 -6 9 -20 9 -14 0 -30 8 -35 18 -8 13 -10 14 -11 2 0
-13 -1 -13 -10 0 -9 15 -13 17 -52 19 -12 0 -18 4 -15 8 9 8 -12 33 -27 33 -6
0 -4 -5 4 -10 27 -18 1 -10 -35 10 -19 11 -35 17 -35 14 0 -4 -7 0 -16 7 -9 7
-28 15 -42 17 -15 2 -29 7 -32 11 -4 6 -33 17 -70 26 -3 0 -16 7 -30 15 -28
16 -40 19 -89 27 -23 4 -29 8 -20 14 10 6 4 9 -18 10 -18 1 -37 3 -43 4 -5 1
-15 3 -21 4 -5 0 -8 4 -6 9 3 4 -5 8 -16 8 -41 3 -102 17 -107 25 -3 5 -27 10
-53 11 -26 2 -47 6 -47 10 0 4 -7 4 -17 1 -12 -5 -14 -3 -8 8 7 11 5 11 -10
-1 -11 -9 -16 -10 -11 -2 6 11 -19 18 -48 13 -4 -1 -14 3 -21 9 -7 6 -41 13
-76 17 -35 3 -65 10 -67 14 -2 5 -23 9 -47 9 -25 0 -45 5 -48 13 -4 9 -6 9 -6
-1 -1 -7 -5 -11 -10 -8 -5 3 -29 7 -54 7 -30 2 -44 6 -40 13 3 6 0 5 -8 -1 -7
-7 -18 -13 -23 -13 -6 0 -4 5 4 10 11 7 1 10 -35 10 -27 1 -88 3 -135 6 -80 5
-390 11 -393 8z"/>
</g>
</svg>
